<svg width="528" height="481" viewBox="0 0 528 481" fill="none" xmlns="http://www.w3.org/2000/svg">
<path fill-rule="evenodd" clip-rule="evenodd" d="M0.200012 0.480469H528V480.48H0.200012V0.480469Z" fill="white"/>
<mask id="mask0_2426_96" style="mask-type:luminance" maskUnits="userSpaceOnUse" x="0" y="0" width="528" height="481">
<path fill-rule="evenodd" clip-rule="evenodd" d="M0.200012 0.480469H528V480.48H0.200012V0.480469Z" fill="white"/>
</mask>
<g mask="url(#mask0_2426_96)">
<path fill-rule="evenodd" clip-rule="evenodd" d="M426.5 537C313.236 537 221 444.764 221 331.5C221 218.236 313.236 126 426.5 126C539.764 126 632 218.236 632 331.5C632 397.362 600.812 456.113 552.438 493.754C554.781 491.394 556.295 488.201 556.521 484.578C557 480.751 557 477.881 557 474.533V469.749C556.879 463.683 556.35 457.725 555.44 451.901C584.927 420.343 603 377.99 603 331.5C603 234.186 523.814 155 426.5 155C329.186 155 250 234.186 250 331.5C250 378.377 268.375 421.047 298.299 452.686C297.282 459.801 296.849 467.1 297.047 474.533C297.047 477.403 297.047 480.751 297.526 484.578C298.004 492.71 304.707 498.451 312.845 497.972C320.984 497.494 326.728 490.797 326.25 482.665C325.892 480.163 325.802 478.196 325.779 476.363C354.361 496.298 389.091 508 426.5 508C464.357 508 499.471 496.016 528.247 475.643C528.207 476.468 528.131 477.336 528.053 478.232C527.928 479.664 527.797 481.164 527.797 482.665C527.318 490.318 533.063 497.494 541.202 497.972H542.159C544.791 497.972 547.253 497.294 549.371 496.094C515.07 521.773 472.521 537 426.5 537ZM528.247 475.643C538.103 468.665 547.215 460.703 555.44 451.901C545.506 388.367 490.17 340.712 424.39 342.027C359.589 343.313 307.098 391.111 298.299 452.686C306.615 461.48 315.824 469.421 325.779 476.363C325.771 475.743 325.771 475.138 325.771 474.533V470.227C326.728 414.259 373.166 369.771 429.178 371.207C485.19 372.163 529.712 418.564 528.276 474.533C528.276 474.892 528.265 475.263 528.247 475.643ZM549.371 496.094C550.401 495.324 551.423 494.543 552.438 493.754C551.531 494.667 550.5 495.455 549.371 496.094ZM368 268.5C368 300.339 393.661 326 425.5 326C457.339 326 483 300.339 483 268.5C483 236.661 457.339 211 425.5 211C393.661 211 368 236.661 368 268.5ZM426.5 240C410.057 240 397 253.057 397 269.5C397 285.943 410.057 299 426.5 299C442.943 299 456 285.943 456 269.5C456 253.057 442.943 240 426.5 240Z" fill="#F9FAFF"/>
</g>
</svg>
